<?xml version="1.0" encoding="UTF-8" standalone="no"?>
<!-- Created with Inkscape (http://www.inkscape.org/) -->

<svg
   width="136mm"
   height="34mm"
   viewBox="0 0 136 34"
   version="1.1"
   id="svg1"
   xml:space="preserve"
   inkscape:version="1.4 (86a8ad7, 2024-10-11)"
   sodipodi:docname="SIGLA_SIMTECH.svg"
   xmlns:inkscape="http://www.inkscape.org/namespaces/inkscape"
   xmlns:sodipodi="http://sodipodi.sourceforge.net/DTD/sodipodi-0.dtd"
   xmlns="http://www.w3.org/2000/svg"
   xmlns:svg="http://www.w3.org/2000/svg"><sodipodi:namedview
     id="namedview1"
     pagecolor="#ffffff"
     bordercolor="#666666"
     borderopacity="1.0"
     inkscape:showpageshadow="2"
     inkscape:pageopacity="0.0"
     inkscape:pagecheckerboard="0"
     inkscape:deskcolor="#d1d1d1"
     inkscape:document-units="mm"
     inkscape:zoom="2.7901515"
     inkscape:cx="212.53326"
     inkscape:cy="93.364106"
     inkscape:window-width="2400"
     inkscape:window-height="1271"
     inkscape:window-x="-9"
     inkscape:window-y="-9"
     inkscape:window-maximized="1"
     inkscape:current-layer="layer1" /><defs
     id="defs1" /><g
     inkscape:label="Layer 1"
     inkscape:groupmode="layer"
     id="layer1"><g
       transform="matrix(0.28410958,0,0,0.28410958,-77.677656,-92.10072)"
       id="logo-group"><g
         transform="matrix(0,0,0,0,512,384)"
         id="container-group"><path
           style="fill:#ffffff"
           d="M 100.08,37.87 H 38.03 v 124.1 h 124.1 V 37.87 Z"
           id="container" /></g><path
         stroke-miterlimit="2"
         d="m 276.59,416.61 v 25.536 h 1.8605 V 416.61 Z"
         style="font-variant-ligatures:none;fill:#344283;stroke-width:0;stroke-miterlimit:2"
         id="path30204" /><path
         stroke-miterlimit="2"
         d="m 322.74,416.61 h -1.8605 v 22.18 l -17.364,-22.18 h -1.5686 v 25.536 h 1.8605 v -22.18 l 17.401,22.18 h 1.5322 z"
         style="font-variant-ligatures:none;fill:#344283;stroke-width:0;stroke-miterlimit:2"
         id="path30206" /><path
         stroke-miterlimit="2"
         d="m 351.14,418.29 v 23.858 h 1.8605 V 418.29 h 9.193 v -1.6781 h -20.246 v 1.6781 z"
         style="font-variant-ligatures:none;fill:#344283;stroke-width:0;stroke-miterlimit:2"
         id="path30208" /><path
         stroke-miterlimit="2"
         d="m 397.88,428.36 h -16.525 v 1.6416 h 16.525 z m 0,-11.747 h -16.525 v 1.6781 h 16.525 z m -16.525,23.858 v 1.6781 h 16.525 v -1.6781 z"
         style="font-variant-ligatures:none;fill:#344283;stroke-width:0;stroke-miterlimit:2"
         id="path30210" /><path
         stroke-miterlimit="2"
         d="m 433.85,433.21 c 1.897,-0.5472 3.3926,-1.4957 4.4141,-2.8819 1.0214,-1.3862 1.5686,-3.0643 1.5686,-5.1072 0,-2.663 -0.912,-4.7789 -2.736,-6.311 -1.824,-1.5322 -4.3411,-2.2982 -7.5514,-2.2982 h -9.1565 v 1.6781 h 9.1565 c 2.6995,0 4.7789,0.62016 6.2381,1.824 1.4227,1.2038 2.1523,2.9184 2.1523,5.1072 0,2.2253 -0.7296,3.9398 -2.1523,5.1437 -1.4592,1.2038 -3.5386,1.7875 -6.2381,1.7875 h -9.1565 v 9.9955 h 1.8605 v -8.3539 h 7.296 c 0.7296,0 1.5686,-0.0365 2.4806,-0.1824 l 6.0922,8.5363 h 2.1158 z"
         style="font-variant-ligatures:none;fill:#344283;stroke-width:0;stroke-miterlimit:2"
         id="path30212" /><path
         stroke-miterlimit="2"
         d="m 482.07,416.61 h -1.8605 v 22.18 l -17.364,-22.18 h -1.5686 v 25.536 h 1.8605 v -22.18 l 17.401,22.18 h 1.5322 z"
         style="font-variant-ligatures:none;fill:#344283;stroke-width:0;stroke-miterlimit:2"
         id="path30214" /><path
         stroke-miterlimit="2"
         d="m 514.92,416.61 h -1.8605 l -11.747,25.536 h 2.0064 l 10.652,-23.493 10.689,23.493 h 2.0064 z"
         style="font-variant-ligatures:none;fill:#344283;stroke-width:0;stroke-miterlimit:2"
         id="path30216" /><path
         stroke-miterlimit="2"
         d="m 549.5,418.29 v 23.858 h 1.8605 V 418.29 h 9.193 v -1.6781 h -20.246 v 1.6781 z"
         style="font-variant-ligatures:none;fill:#344283;stroke-width:0;stroke-miterlimit:2"
         id="path30218" /><path
         stroke-miterlimit="2"
         d="m 579.72,416.61 v 25.536 h 1.8605 V 416.61 Z"
         style="font-variant-ligatures:none;fill:#344283;stroke-width:0;stroke-miterlimit:2"
         id="path30220" /><path
         stroke-miterlimit="2"
         d="m 609.12,440.65 c 2.0064,1.1309 4.2682,1.6781 6.7853,1.6781 2.4806,0 4.7424,-0.5472 6.7853,-1.6781 2.0064,-1.0944 3.575,-2.663 4.7424,-4.633 1.1674,-1.9699 1.751,-4.1587 1.751,-6.6394 0,-2.4442 -0.58368,-4.6694 -1.751,-6.6394 -1.1674,-1.9699 -2.736,-3.5021 -4.7424,-4.633 -2.0429,-1.0944 -4.3046,-1.6781 -6.7853,-1.6781 -2.5171,0 -4.7789,0.58368 -6.7853,1.7146 -2.0429,1.1309 -3.6115,2.663 -4.7789,4.633 -1.1674,1.9699 -1.7146,4.1952 -1.7146,6.6029 0,2.4442 0.5472,4.633 1.7146,6.6029 1.1674,1.9699 2.736,3.5386 4.7789,4.6694 z m 12.586,-1.4957 c -1.751,0.98496 -3.6845,1.4592 -5.8003,1.4592 -2.1523,0 -4.0858,-0.47424 -5.8368,-1.4592 -1.751,-0.94848 -3.1008,-2.2982 -4.0858,-4.0128 -1.0214,-1.7146 -1.4957,-3.648 -1.4957,-5.7638 0,-2.1158 0.47424,-4.0128 1.4957,-5.7274 0.98496,-1.7146 2.3347,-3.0643 4.0858,-4.0493 1.751,-0.94848 3.6845,-1.4592 5.8368,-1.4592 2.1158,0 4.0493,0.51072 5.8003,1.4592 1.7146,0.98496 3.0643,2.3347 4.0858,4.0493 0.98496,1.7146 1.4957,3.6115 1.4957,5.7274 0,2.1158 -0.51072,4.0493 -1.4957,5.7638 -1.0214,1.7146 -2.3712,3.0643 -4.0858,4.0128 z"
         style="font-variant-ligatures:none;fill:#344283;stroke-width:0;stroke-miterlimit:2"
         id="path30222" /><path
         stroke-miterlimit="2"
         d="m 671.02,416.61 h -1.8605 v 22.18 l -17.364,-22.18 h -1.5686 v 25.536 h 1.8605 v -22.18 l 17.401,22.18 h 1.5322 z"
         style="font-variant-ligatures:none;fill:#344283;stroke-width:0;stroke-miterlimit:2"
         id="path30224" /><path
         stroke-miterlimit="2"
         d="m 703.87,416.61 h -1.8605 l -11.747,25.536 h 2.0064 l 10.652,-23.493 10.689,23.493 h 2.0064 z"
         style="font-variant-ligatures:none;fill:#344283;stroke-width:0;stroke-miterlimit:2"
         id="path30226" /><path
         stroke-miterlimit="2"
         d="m 734.84,416.61 v 25.536 h 16.562 v -1.6781 h -14.701 v -23.858 z"
         style="font-variant-ligatures:none;fill:#344283;stroke-width:0;stroke-miterlimit:2"
         id="path30228" /><path
         stroke-miterlimit="2"
         d="m 299.53,357.81 c -10.296,-3.5006 -19.151,-6.5894 -19.151,-15.135 0,-12.252 12.973,-13.488 18.533,-13.488 12.252,0 19.151,7.3102 19.254,7.4131 0.61776,0.72072 1.6474,0.72072 2.3681,0.10296 0.72072,-0.61776 0.82368,-1.7503 0.20592,-2.471 -0.30888,-0.30888 -7.9279,-8.5457 -21.828,-8.5457 -13.797,0 -21.93,6.2806 -21.93,16.988 0,11.017 10.811,14.826 21.416,18.43 10.914,3.8095 21.313,7.4131 21.313,18.43 0,8.8546 -10.296,13.694 -20.077,13.694 -12.87,0 -21.93,-8.7516 -22.033,-8.8546 -0.72072,-0.61776 -1.8533,-0.61776 -2.471,0 -0.72072,0.72072 -0.72072,1.8533 0,2.471 0.41184,0.41184 10.09,9.7812 24.504,9.7812 15.444,0 23.578,-8.6486 23.578,-17.091 0,-13.488 -12.561,-17.812 -23.681,-21.725 z"
         style="font-variant-ligatures:normal;fill:#070250;stroke-width:0;stroke-miterlimit:2"
         id="path30231" /><path
         stroke-miterlimit="2"
         d="m 352.7,325.69 c -0.92664,0 -1.7503,0.72072 -1.7503,1.7503 v 67.542 c 0,0.92664 0.82368,1.6474 1.7503,1.6474 0.92664,0 1.7503,-0.72072 1.7503,-1.6474 v -67.542 c 0,-1.0296 -0.82368,-1.7503 -1.7503,-1.7503 z"
         style="font-variant-ligatures:normal;fill:#1d297a;stroke-width:0;stroke-miterlimit:2"
         id="path30233" /><path
         stroke-miterlimit="2"
         d="m 449.44,325.69 c -0.82368,-0.10296 -1.6474,0.30888 -1.9562,1.0296 l -28.726,63.938 -28.726,-63.938 c -0.30888,-0.72072 -1.1326,-1.1326 -1.9562,-1.0296 -0.72072,0.20592 -1.3385,0.92664 -1.3385,1.7503 v 67.542 c 0,0.92664 0.82368,1.6474 1.7503,1.6474 0.92664,0 1.7503,-0.72072 1.7503,-1.6474 v -59.511 l 26.976,60.129 v 0.10296 l 0.20592,0.30888 c 0,0 0,0.10296 0.10296,0.10296 0,0.10296 0.20592,0.20592 0.30888,0.20592 0,0.10296 0,0.10296 0.10296,0.10296 l 0.10296,0.10296 h 0.20592 c 0,0 0,0.10296 0.10296,0.10296 h 0.82368 c 0.10296,0 0.10296,-0.10296 0.10296,-0.10296 h 0.20592 l 0.10296,-0.10296 c 0.10296,0 0.10296,0 0.10296,-0.10296 0.20592,0 0.30888,-0.10296 0.41184,-0.20592 v -0.10296 c 0.10296,-0.10296 0.10296,-0.20592 0.20592,-0.30888 v -0.10296 l 26.976,-60.129 v 59.511 c 0,0.92664 0.82368,1.6474 1.7503,1.6474 1.0296,0 1.7503,-0.72072 1.7503,-1.6474 v -67.542 c 0,-0.82368 -0.61776,-1.5444 -1.3385,-1.7503 z"
         style="font-variant-ligatures:normal;fill:#3250a3;stroke-width:0;stroke-miterlimit:2"
         id="path30235" /><path
         stroke-miterlimit="2"
         d="m 471.89,329.19 h 113.67 c 1.0296,0 1.7503,-0.82368 1.7503,-1.7503 0,-1.0296 -0.72072,-1.7503 -1.7503,-1.7503 H 471.89 c -0.92664,0 -1.7503,0.72072 -1.7503,1.7503 0,0.92664 0.82368,1.7503 1.7503,1.7503 z m 25.637,5.7658 c -0.92664,0 -1.7503,0.72072 -1.7503,1.6474 v 58.378 c 0,0.92664 0.82368,1.6474 1.7503,1.6474 1.0296,0 1.7503,-0.72072 1.7503,-1.6474 v -58.378 c 0,-0.92664 -0.72072,-1.6474 -1.7503,-1.6474 z m 87.31,23.372 h -38.816 c -0.92664,0 -1.7503,0.82368 -1.7503,1.7503 0,0.92664 0.82368,1.7503 1.7503,1.7503 h 38.816 c 1.0296,0 1.7503,-0.82368 1.7503,-1.7503 0,-0.92664 -0.72072,-1.7503 -1.7503,-1.7503 z m 0.72072,34.903 h -39.537 c -0.92664,0 -1.7503,0.72072 -1.7503,1.7503 0,0.92664 0.82368,1.6474 1.7503,1.6474 h 39.537 c 1.0296,0 1.7503,-0.72072 1.7503,-1.6474 0,-1.0296 -0.72072,-1.7503 -1.7503,-1.7503 z"
         style="font-variant-ligatures:normal;fill:#4877cd;stroke-width:0;stroke-miterlimit:2"
         id="path30237" /><path
         stroke-miterlimit="2"
         d="m 695.77,325.69 h -52.51 c -19.562,0 -35.521,15.959 -35.521,35.521 0,19.562 15.959,35.418 35.521,35.418 9.4723,0 18.327,-3.6036 25.122,-10.399 0.61776,-0.61776 0.61776,-1.7503 0,-2.3681 -0.72072,-0.72072 -1.8533,-0.72072 -2.471,0 -6.0746,5.9717 -14.106,9.3694 -22.651,9.3694 -17.709,0 -32.021,-14.414 -32.021,-32.021 0,-17.709 14.311,-32.021 32.021,-32.021 h 50.759 v 65.791 c 0,0.92664 0.72072,1.6474 1.7503,1.6474 0.92664,0 1.7503,-0.72072 1.7503,-1.6474 v -67.542 c 0,-1.0296 -0.82368,-1.7503 -1.7503,-1.7503 z m 51.892,0 c -1.0296,0 -1.7503,0.72072 -1.7503,1.7503 v 67.542 c 0,0.92664 0.72072,1.6474 1.7503,1.6474 0.92664,0 1.7503,-0.72072 1.7503,-1.6474 v -67.542 c 0,-1.0296 -0.82368,-1.7503 -1.7503,-1.7503 z m -5.7658,32.535 h -40.36 c -0.92664,0 -1.7503,0.82368 -1.7503,1.7503 0,1.0296 0.82368,1.7503 1.7503,1.7503 h 40.36 c 0.92664,0 1.6474,-0.72072 1.6474,-1.7503 0,-0.92664 -0.72072,-1.7503 -1.6474,-1.7503 z"
         style="font-variant-ligatures:normal;fill:#5d9ef6;stroke-width:0;stroke-miterlimit:2"
         id="path30239" /></g></g></svg>
